Coordinates
version=1
nRows=10
nColumns=40
inDegrees=yes

Units are S.I. units (second, meters, Newtons, ...)
If the header above contains a line with 'inDegrees', this indicates whether rotational values are in degrees (yes) or radians (no).

endheader
time	pelvis_tilt	pelvis_list	pelvis_rotation	pelvis_tx	pelvis_ty	pelvis_tz	hip_flexion_r	hip_adduction_r	hip_rotation_r	knee_angle_r	knee_angle_r_beta	ankle_angle_r	subtalar_angle_r	mtp_angle_r	hip_flexion_l	hip_adduction_l	hip_rotation_l	knee_angle_l	knee_angle_l_beta	ankle_angle_l	subtalar_angle_l	mtp_angle_l	lumbar_extension	lumbar_bending	lumbar_rotation	arm_flex_r	arm_add_r	arm_rot_r	elbow_flex_r	pro_sup_r	wrist_flex_r	wrist_dev_r	arm_flex_l	arm_add_l	arm_rot_l	elbow_flex_l	pro_sup_l	wrist_flex_l	wrist_dev_l
      1.03000000	    -86.25840814	     86.99854878	     -0.16909745	     -0.23398188	      1.56789498	      0.99427156	     28.79677934	      0.08048110	    -11.52949052	     23.04825136	      0.40226787	    -10.04532949	      2.53945950	      0.00000000	    -15.22536897	     -7.37278715	     -6.38019031	     34.36029617	      0.59970030	     -6.34208098	     14.79053314	      0.00000000	    -14.42157996	      6.33153129	     -1.58519969	    -15.36116765	    -11.42032113	      6.08664481	     38.36421289	     79.40879260	      0.00000000	      0.00000000	     -3.22374282	    -11.98112325	     -0.60503374	     45.73661679	     74.33174717	      0.00000000	      0.00000000
      1.04000000	    -85.51741563	     86.90579443	     -1.57303697	     -0.23588471	      1.55252221	      0.99701236	     28.04941354	      0.61693018	    -10.79735033	     23.49068513	      0.40998980	     -9.34600277	      2.56054143	      0.00000000	    -14.03838118	     -7.94789760	     -7.95440961	     36.82302771	      0.64268307	    -10.77499578	     13.70445268	      0.00000000	    -14.42077879	      6.49382383	     -1.00783956	    -15.03564694	    -11.71253399	      6.86637677	     38.28269003	     77.92376291	      0.00000000	      0.00000000	     -4.00004545	    -11.45872447	     -0.75681416	     44.69949711	     72.83570714	      0.00000000	      0.00000000
      1.05000000	    -87.49182220	     86.22193607	      0.57411597	     -0.23747534	      1.53744742	      0.99941445	     27.21018659	      1.51205626	    -10.92580354	     23.55135628	      0.41104871	     -8.76933989	      2.11010150	      0.00000000	    -12.22213126	     -9.46734260	     -8.67927062	     39.68001118	      0.69254684	    -15.15345442	     12.38191439	      0.00000000	    -14.21834125	      7.38447244	     -1.20514904	    -14.80866947	    -11.74317454	      6.22502331	     38.42310119	     79.79030000	      0.00000000	      0.00000000	     -4.98142034	    -10.95255609	     -1.25367088	     43.81072855	     73.31324112	      0.00000000	      0.00000000
      1.06000000	    -87.54345082	     85.97176814	      0.53566261	     -0.23914054	      1.52258867	      1.00189853	     26.29807741	      2.14115963	    -10.45467056	     23.64591063	      0.41269900	     -8.03085761	      1.46582490	      0.00000000	    -10.68169986	    -10.33943885	     -9.45746460	     41.97565111	      0.73261332	    -20.18789120	     10.40238228	      0.00000000	    -14.16959886	      7.75394385	     -1.23391315	    -14.51259281	    -11.83160805	      6.12084100	     38.64381222	     80.12989398	      0.00000000	      0.00000000	     -5.86811605	    -10.59131974	     -1.34386284	     42.94296262	     73.04034658	      0.00000000	      0.00000000
      1.07000000	    -86.31942354	     85.69599420	     -0.98619522	     -0.24115971	      1.50789957	      1.00466476	     25.12842175	      2.89396748	     -9.87447343	     23.43549637	      0.40902657	     -7.24121065	      1.07467939	      0.00000000	     -9.33947803	    -11.14487206	    -10.41027099	     43.87164592	      0.76570467	    -25.52152986	      7.80476721	      0.00000000	    -14.27145979	      8.07147972	     -0.99259425	    -14.08608486	    -12.10265171	      7.09299575	     38.78943840	     78.26164344	      0.00000000	      0.00000000	     -6.56569954	    -10.37027655	     -0.68175843	     41.86137338	     71.36248281	      0.00000000	      0.00000000
      1.08000000	    -86.78833195	     85.35883072	     -0.40549073	     -0.24286545	      1.49373761	      1.00707738	     24.13016133	      3.57193614	     -9.54877231	     23.25559184	      0.40588665	     -6.53479064	      0.43263139	      0.00000000	     -7.60446985	    -12.14295472	    -10.82926046	     45.94279777	      0.80185309	    -30.02353731	      5.73500863	      0.00000000	    -14.22557250	      8.49817737	     -1.14479775	    -13.78715857	    -12.16188413	      6.89907961	     39.20801565	     78.72355621	      0.00000000	      0.00000000	     -7.35517113	    -10.20120161	     -0.47823919	     41.15085627	     71.63171574	      0.00000000	      0.00000000
      1.09000000	    -87.83234114	     85.10903800	      0.77279450	     -0.24454462	      1.48021679	      1.00949489	     23.20326468	      4.17375586	     -9.15237045	     22.96845876	      0.40087523	     -6.15223624	     -0.46395346	      0.00000000	     -5.64438317	    -12.91857482	    -10.89714739	     48.24257507	      0.84199177	    -32.09410614	      3.59018168	      0.00000000	    -14.17690937	      8.80957190	     -1.26249928	    -13.44524141	    -12.17447191	      6.65210186	     39.53078510	     80.20996751	      0.00000000	      0.00000000	     -7.95124103	    -10.10341355	      0.17541240	     40.20903066	     72.03803888	      0.00000000	      0.00000000
      1.10000000	    -87.50134342	     85.24139288	      0.05655205	     -0.24622644	      1.46664972	      1.01224542	     22.18917851	      4.43138798	     -8.45802873	     22.83076823	      0.39847208	     -5.38126672	     -0.53469170	      0.00000000	     -4.03335661	    -12.98228444	    -11.06698328	     50.27865874	      0.87752814	    -31.54704112	      2.14346100	      0.00000000	    -14.31623848	      8.62669973	     -1.01604142	    -12.98892166	    -12.32470606	      6.90787113	     39.89470373	     79.92514613	      0.00000000	      0.00000000	     -8.59423643	    -10.01824679	      0.80808525	     39.44126450	     71.81254742	      0.00000000	      0.00000000
      1.11000000	    -87.08877592	     85.50140693	     -0.74234857	     -0.24768606	      1.45345454	      1.01504914	     21.20899583	      4.50936137	     -7.75873897	     22.71123118	      0.39638576	     -4.71560990	     -0.61330064	      0.00000000	     -2.39797524	    -12.67945962	    -10.85174982	     52.06062450	      0.90862931	    -29.87845942	      0.96986311	      0.00000000	    -14.49040889	      8.30135279	     -0.77487169	    -12.53770898	    -12.45075611	      7.05376002	     40.52018353	     79.38020388	      0.00000000	      0.00000000	     -9.20030412	     -9.87398122	      1.29234037	     38.78311818	     71.33324622	      0.00000000	      0.00000000
      1.12000000	    -87.13146199	     86.07338393	     -1.28435874	     -0.24870883	      1.44041803	      1.01789328	     20.30577227	      4.25198354	     -6.86651611	     22.64706900	      0.39526592	     -4.06003853	     -0.75538770	      0.00000000	     -0.78966502	    -11.81162895	    -10.63135918	     53.51656039	      0.93404018	    -27.63298473	     -0.05456048	      0.00000000	    -14.62935692	      7.64376475	     -0.30755435	    -12.13456964	    -12.73346043	      7.61842308	     41.02033445	     79.50909830	      0.00000000	      0.00000000	     -9.58443172	     -9.78525084	      2.56147101	     37.47929235	     71.66256032	      0.00000000	      0.00000000
